<svg width="200" height="200" viewBox="0 0 200 200" fill="none" xmlns="http://www.w3.org/2000/svg">
<circle cx="100" cy="100" r="87.5" stroke="#FFCD00" stroke-width="5"/>
<circle cx="100" cy="100" r="79" stroke="#D9D9D9" stroke-width="2"/>
<path d="M46.4114 122.849L71.0485 152.21L143.253 124.684C143.253 124.684 130.31 128.271 105.487 98.6876C80.6636 69.1044 84.1401 55.8305 84.1401 55.8305L46.4114 122.849Z" fill="#D9D9D9"/>
<path d="M58.4314 161.031C57.987 161.341 57.3788 161.261 57.0302 160.846L55.4904 159.011L52.4107 155.34L46.2515 148L40.5542 141.21L37.7055 137.815L36.2812 136.118L35.569 135.269C35.166 134.789 35.1966 134.08 35.6397 133.637L46.4115 122.849L71.0485 152.21L58.4314 161.031Z" fill="#D9D9D9"/>
<path d="M65.4257 160.111L73.2448 154.573L82.2142 159.609L86.6989 162.128C88.6106 163.201 88.5483 165.974 86.5904 166.96L81.8162 169.366C79.8321 170.366 77.4442 170.094 75.7351 168.675L65.4257 160.111Z" fill="#D9D9D9"/>
<path d="M108 41L154.5 87.5L112 30L108 41Z" fill="#FFCD00"/>
<path d="M162.5 98V94H166.5V98H162.5Z" fill="#FFCD00"/>
<path d="M108 41L154.5 87.5L112 30L108 41Z" stroke="#FFCD00" stroke-width="5"/>
<path d="M162.5 98V94H166.5V98H162.5Z" stroke="#FFCD00" stroke-width="5"/>
<path d="M122.5 112L91.5 70.5L140 112M140 112L100.5 50.5M140 112L97 50.5H100.5M100.5 50.5L159.5 109L155 110L100.5 50.5Z" stroke="#FFCD00" stroke-width="5"/>
</svg>
